# xmcd
#
# Track frame offsets: 
#        150
#        26588
#        52642
#        73574
#        93025
#        119766
#        146866
#        173350
#        202395
#        228715
#        253979
#        287640
#
# Disc length: 4211 seconds
#
# Revision: 4
# Processed by: cddbd v1.5.2PL0 Copyright (c) Steve Scherf et al.
# Submitted via: ExactAudioCopy v1.0b6
#
DISCID=b110710c
DTITLE=Various Artist - Wire 05 Compilation [CD 2)
DYEAR=2005
DGENRE=Techno
TTITLE0=Abe Duque - King
TTITLE1=Vanguard - 1Bit Bass (Vanguard Remix)
TTITLE2=Ellen Allien - Down
TTITLE3=Hell - Tragic Picture Show
TTITLE4=Westbam - Pump My Bass
TTITLE5=Shin Nishimura - Lover
TTITLE6=Fumiya Tanaka - First Track
TTITLE7=Reinhard Voigt - Robson Ponte (Rmx)
TTITLE8=Kagami - The Boogie Bush
TTITLE9=Toby Izui - Burn Behind
TTITLE10=Hatiras - Money Shot (Hatiras Vs. Da Skunk Remix)
TTITLE11=Chris Liebing - String Theory
EXTD=YEAR: 2005
EXTT0=
EXTT1=
EXTT2=
EXTT3=
EXTT4=
EXTT5=
EXTT6=
EXTT7=
EXTT8=
EXTT9=
EXTT10=
EXTT11=
PLAYORDER=
